<svg width="48" height="48" viewBox="0 0 48 48" fill="none" xmlns="http://www.w3.org/2000/svg">
<circle cx="24" cy="24" r="23.6" stroke="#F2F2F2" stroke-width="0.8"/>
<g clip-path="url(#clip0_331_42)">
<path d="M28.5862 14H19.4138C16.4286 14 14 16.4286 14 19.4138V28.5863C14 31.5714 16.4286 34 19.4138 34H28.5863C31.5714 34 34 31.5714 34 28.5863V19.4138C34 16.4286 31.5714 14 28.5862 14V14ZM24 29.4686C20.9845 29.4686 18.5314 27.0154 18.5314 24C18.5314 20.9845 20.9845 18.5314 24 18.5314C27.0154 18.5314 29.4686 20.9845 29.4686 24C29.4686 27.0154 27.0154 29.4686 24 29.4686ZM29.5993 19.8211C28.7082 19.8211 27.9834 19.0963 27.9834 18.2052C27.9834 17.314 28.7082 16.5891 29.5993 16.5891C30.4904 16.5891 31.2154 17.314 31.2154 18.2052C31.2154 19.0963 30.4904 19.8211 29.5993 19.8211Z" fill="#F2F2F2"/>
<path d="M23.9992 19.7041C21.6305 19.7041 19.7031 21.6313 19.7031 24.0002C19.7031 26.369 21.6305 28.2963 23.9992 28.2963C26.3682 28.2963 28.2953 26.369 28.2953 24.0002C28.2953 21.6313 26.3682 19.7041 23.9992 19.7041Z" fill="#F2F2F2"/>
<path d="M29.5997 17.7617C29.3552 17.7617 29.1562 17.9607 29.1562 18.2051C29.1562 18.4496 29.3552 18.6486 29.5997 18.6486C29.8443 18.6486 30.0432 18.4497 30.0432 18.2051C30.0432 17.9605 29.8443 17.7617 29.5997 17.7617Z" fill="#F2F2F2"/>
</g>
<defs>
<clipPath id="clip0_331_42">
<rect width="20" height="20" fill="white" transform="translate(14 14)"/>
</clipPath>
</defs>
</svg>
