<svg width="48" height="48" viewBox="0 0 48 48" fill="none" xmlns="http://www.w3.org/2000/svg">
<circle cx="24" cy="24" r="23.6" stroke="#F2F2F2" stroke-width="0.8"/>
<g clip-path="url(#clip0_331_32)">
<path d="M39 17.3677C37.9587 17.7692 36.8492 18.0354 35.6925 18.1646C36.8825 17.54 37.7908 16.5585 38.2178 15.3754C37.1083 15.9569 35.8832 16.3677 34.5777 16.5969C33.5243 15.6108 32.0227 15 30.3848 15C27.2067 15 24.6482 17.2677 24.6482 20.0477C24.6482 20.4477 24.6868 20.8323 24.7812 21.1985C20.009 20.9938 15.7863 18.9831 12.9495 15.92C12.4542 16.6754 12.1638 17.54 12.1638 18.4708C12.1638 20.2185 13.1875 21.7677 14.7135 22.6646C13.7912 22.6492 12.8865 22.4138 12.12 22.0431C12.12 22.0585 12.12 22.0785 12.12 22.0985C12.12 24.5508 14.1097 26.5877 16.719 27.0569C16.2517 27.1692 15.7425 27.2231 15.214 27.2231C14.8465 27.2231 14.4755 27.2046 14.1272 27.1369C14.871 29.1354 16.9815 30.6046 19.491 30.6523C17.538 31.9954 15.0582 32.8046 12.3738 32.8046C11.903 32.8046 11.4515 32.7862 11 32.7354C13.5427 34.1769 16.5563 35 19.806 35C30.369 35 36.144 27.3077 36.144 20.64C36.144 20.4169 36.1353 20.2015 36.123 19.9877C37.2622 19.2769 38.2195 18.3892 39 17.3677Z" fill="#F2F2F2"/>
</g>
<defs>
<clipPath id="clip0_331_32">
<rect width="27" height="27" fill="white" transform="translate(11.5 11.5)"/>
</clipPath>
</defs>
</svg>
